<?xml version="1.0" encoding="UTF-8" standalone="no"?>
<!DOCTYPE svg PUBLIC "-//W3C//DTD SVG 1.1//EN" "http://www.w3.org/Graphics/SVG/1.1/DTD/svg11.dtd">
<svg width="100%" height="100%" viewBox="0 0 1280 300" version="1.1" xmlns="http://www.w3.org/2000/svg" xmlns:xlink="http://www.w3.org/1999/xlink" xml:space="preserve" xmlns:serif="http://www.serif.com/" style="fill-rule:evenodd;clip-rule:evenodd;stroke-linejoin:round;stroke-miterlimit:2;">
    <g transform="matrix(1.17449,0,0,1.17449,-329.297,-410.797)">
        <g>
            <g transform="matrix(1,0,0,1,285.038,533.482)">
                <g transform="matrix(200,0,0,200,0,0)">
                    <path d="M0.438,-0.517L0.438,-0.447C0.403,-0.496 0.337,-0.529 0.267,-0.529C0.137,-0.529 0.038,-0.428 0.038,-0.284C0.038,-0.14 0.137,-0.038 0.267,-0.038C0.335,-0.038 0.397,-0.068 0.438,-0.118L0.438,-0.061C0.438,0.006 0.378,0.049 0.284,0.049C0.224,0.049 0.164,0.03 0.13,0L0.079,0.103C0.13,0.143 0.216,0.172 0.307,0.172C0.47,0.172 0.585,0.078 0.585,-0.055L0.585,-0.517L0.438,-0.517ZM0.313,-0.161C0.24,-0.161 0.188,-0.212 0.188,-0.284C0.188,-0.356 0.24,-0.406 0.313,-0.406C0.386,-0.406 0.438,-0.356 0.438,-0.284C0.438,-0.212 0.386,-0.161 0.313,-0.161Z" style="fill-rule:nonzero;"/>
                </g>
                <g transform="matrix(200,0,0,200,129.8,0)">
                    <path d="M0.21,-0.421L0.21,-0.517L0.064,-0.517L0.064,0L0.21,0L0.21,-0.247C0.21,-0.344 0.279,-0.406 0.387,-0.406L0.387,-0.529C0.308,-0.529 0.244,-0.488 0.21,-0.421Z" style="fill-rule:nonzero;"/>
                </g>
                <g transform="matrix(200,0,0,200,211.2,0)">
                    <path d="M0.137,-0.588C0.18,-0.588 0.215,-0.624 0.215,-0.668C0.215,-0.709 0.18,-0.746 0.137,-0.746C0.092,-0.746 0.057,-0.709 0.057,-0.668C0.057,-0.624 0.092,-0.588 0.137,-0.588ZM0.063,0L0.209,0L0.209,-0.517L0.063,-0.517L0.063,0Z" style="fill-rule:nonzero;"/>
                </g>
                <g transform="matrix(200,0,0,200,265.6,0)">
                    <path d="M0.237,-0.545C0.237,-0.579 0.259,-0.603 0.286,-0.603C0.306,-0.603 0.326,-0.596 0.336,-0.586L0.371,-0.675C0.341,-0.702 0.294,-0.72 0.252,-0.72C0.161,-0.72 0.097,-0.655 0.097,-0.562L0.097,-0.517L0.026,-0.517L0.026,-0.399L0.097,-0.399L0.097,0L0.237,0L0.237,-0.399L0.349,-0.399L0.349,-0.517L0.237,-0.517L0.237,-0.545Z" style="fill-rule:nonzero;"/>
                </g>
                <g transform="matrix(200,0,0,200,341.4,0)">
                    <path d="M0.237,-0.545C0.237,-0.579 0.259,-0.603 0.286,-0.603C0.306,-0.603 0.326,-0.596 0.336,-0.586L0.371,-0.675C0.341,-0.702 0.294,-0.72 0.252,-0.72C0.161,-0.72 0.097,-0.655 0.097,-0.562L0.097,-0.517L0.026,-0.517L0.026,-0.399L0.097,-0.399L0.097,0L0.237,0L0.237,-0.399L0.349,-0.399L0.349,-0.517L0.237,-0.517L0.237,-0.545Z" style="fill-rule:nonzero;"/>
                </g>
                <g transform="matrix(200,0,0,200,417.2,0)">
                    <path d="M0.137,-0.588C0.18,-0.588 0.215,-0.624 0.215,-0.668C0.215,-0.709 0.18,-0.746 0.137,-0.746C0.092,-0.746 0.057,-0.709 0.057,-0.668C0.057,-0.624 0.092,-0.588 0.137,-0.588ZM0.063,0L0.209,0L0.209,-0.517L0.063,-0.517L0.063,0Z" style="fill-rule:nonzero;"/>
                </g>
                <g transform="matrix(200,0,0,200,471.6,0)">
                    <path d="M0.363,-0.529C0.296,-0.529 0.238,-0.499 0.207,-0.452L0.207,-0.517L0.061,-0.517L0.061,0L0.207,0L0.207,-0.309L0.208,-0.306C0.208,-0.362 0.255,-0.406 0.316,-0.406C0.374,-0.406 0.414,-0.362 0.414,-0.298L0.414,0L0.555,0L0.555,-0.329C0.555,-0.446 0.475,-0.529 0.363,-0.529Z" style="fill-rule:nonzero;"/>
                </g>
                <g transform="matrix(200,0,0,200,594.4,0)">
                    <path d="M0.317,0.012C0.403,0.012 0.473,-0.023 0.524,-0.079L0.427,-0.161C0.4,-0.131 0.358,-0.111 0.318,-0.111C0.241,-0.111 0.177,-0.179 0.177,-0.26C0.177,-0.339 0.241,-0.406 0.317,-0.406C0.357,-0.406 0.398,-0.387 0.424,-0.358L0.521,-0.441C0.471,-0.495 0.402,-0.529 0.318,-0.529C0.165,-0.529 0.035,-0.406 0.035,-0.259C0.035,-0.112 0.164,0.012 0.317,0.012Z" style="fill-rule:nonzero;"/>
                </g>
            </g>
            <g transform="matrix(1,0,0,1,986.838,533.482)">
                <g transform="matrix(200,0,0,200,0,0)">
                    <path d="M0.318,0.012C0.471,0.012 0.599,-0.112 0.599,-0.259C0.599,-0.406 0.471,-0.529 0.318,-0.529C0.164,-0.529 0.035,-0.406 0.035,-0.259C0.035,-0.112 0.164,0.012 0.318,0.012ZM0.318,-0.111C0.24,-0.111 0.175,-0.179 0.175,-0.259C0.175,-0.339 0.24,-0.406 0.318,-0.406C0.395,-0.406 0.46,-0.339 0.46,-0.259C0.46,-0.179 0.395,-0.111 0.318,-0.111Z" style="fill-rule:nonzero;"/>
                </g>
                <g transform="matrix(200,0,0,200,126.8,0)">
                    <path d="M0.45,-0.699L0.45,-0.443C0.409,-0.497 0.349,-0.529 0.276,-0.529C0.138,-0.529 0.038,-0.417 0.038,-0.259C0.038,-0.1 0.138,0.012 0.276,0.012C0.349,0.012 0.409,-0.02 0.45,-0.074L0.45,0L0.596,0L0.596,-0.699L0.45,-0.699ZM0.318,-0.111C0.237,-0.111 0.18,-0.172 0.18,-0.259C0.18,-0.345 0.237,-0.406 0.318,-0.406C0.395,-0.406 0.45,-0.345 0.45,-0.259C0.45,-0.172 0.395,-0.111 0.318,-0.111Z" style="fill-rule:nonzero;"/>
                </g>
                <g transform="matrix(200,0,0,200,258.8,0)">
                    <path d="M0.308,-0.117C0.247,-0.117 0.202,-0.155 0.185,-0.211L0.558,-0.211C0.558,-0.406 0.463,-0.529 0.301,-0.529C0.15,-0.529 0.035,-0.416 0.035,-0.26C0.035,-0.101 0.155,0.012 0.309,0.012C0.385,0.012 0.474,-0.02 0.52,-0.068L0.427,-0.163C0.399,-0.136 0.349,-0.117 0.308,-0.117ZM0.307,-0.4C0.366,-0.4 0.404,-0.367 0.418,-0.316L0.187,-0.316C0.206,-0.368 0.252,-0.4 0.307,-0.4Z" style="fill-rule:nonzero;"/>
                </g>
            </g>
        </g>
    </g>
</svg>
