<?xml version="1.0" encoding="UTF-8" standalone="no"?>
<!DOCTYPE svg PUBLIC "-//W3C//DTD SVG 1.1//EN" "http://www.w3.org/Graphics/SVG/1.1/DTD/svg11.dtd">
<svg width="100%" height="100%" viewBox="0 0 160 30" version="1.1" xmlns="http://www.w3.org/2000/svg" xmlns:xlink="http://www.w3.org/1999/xlink" xml:space="preserve" xmlns:serif="http://www.serif.com/" style="fill-rule:evenodd;clip-rule:evenodd;stroke-linejoin:round;stroke-miterlimit:2;">
    <g transform="matrix(0.231681,0,0,0.231681,-138.884,-106.172)">
        <rect x="761.199" y="468.899" width="84.513" height="24.387"/>
    </g>
    <g transform="matrix(0.231681,0,0,0.231681,-138.884,-96.4466)">
        <rect x="761.199" y="468.899" width="84.513" height="24.387"/>
    </g>
    <g transform="matrix(0.231681,0,0,0.231681,-138.884,-86.7482)">
        <rect x="761.199" y="468.899" width="84.513" height="24.387"/>
    </g>
    <g transform="matrix(0.231681,0,0,0.231681,-138.884,-106.172)">
        <path d="M872.358,577.123L902.811,577.123L902.811,548.547L919.403,548.547L938.935,577.123L971.069,577.123L947.756,542.85C947.756,542.85 968.759,535.53 968.759,508.723C968.759,481.916 945.446,468.899 929.904,468.899L872.358,468.899L872.358,493.285L924.654,493.285C924.654,493.285 938.095,495.626 938.095,508.723C938.095,521.82 930.324,524.76 924.444,524.76L872.148,524.76L872.358,577.123Z"/>
    </g>
    <g transform="matrix(0.231681,0,0,0.231681,-138.884,-106.172)">
        <path d="M624.43,468.899L658.023,468.899L675.777,511.583L658.437,548.547L624.43,468.899Z"/>
    </g>
    <g transform="matrix(0.231681,0,0,0.231681,-138.884,-106.172)">
        <path d="M716.885,469.015L745.727,469.015L701.45,577.123L670.996,577.123L716.885,469.015Z"/>
    </g>
    <g transform="matrix(0.231681,0,0,0.231681,-138.884,-106.172)">
        <rect x="993.961" y="468.899" width="30.663" height="108.224"/>
    </g>
    <g transform="matrix(0.231681,0,0,0.231681,-138.884,-106.172)">
        <path d="M1041.64,577.123L1089.1,468.899L1118.51,468.899L1166.81,577.123L1135.52,577.123L1103.59,499.138L1072.3,577.123L1041.64,577.123Z"/>
    </g>
    <g transform="matrix(0.231681,0,0,0.231681,-138.884,-106.172)">
        <path d="M1184.03,468.899L1214.07,468.899L1214.07,552.737L1265.1,552.737L1265.1,577.123L1184.24,577.123L1184.03,468.899Z"/>
    </g>
</svg>
